<?xml version="1.0" encoding="utf-8"?>
<!-- Generator: Adobe Illustrator 24.0.1, SVG Export Plug-In . SVG Version: 6.00 Build 0)  -->
<svg version="1.1" id="Ebene_1" xmlns="http://www.w3.org/2000/svg" xmlns:xlink="http://www.w3.org/1999/xlink" x="0px" y="0px"
	 viewBox="0 0 465.77 74.72" style="enable-background:new 0 0 465.77 74.72;" xml:space="preserve">
<g>
	<path d="M0,73.72V0.99h31.39c5.4,0,10.12,1.06,14.17,3.2s7.2,5.13,9.45,8.98c2.25,3.86,3.37,8.37,3.37,13.53
		c0,5.21-1.15,9.72-3.46,13.53c-2.31,3.81-5.54,6.75-9.69,8.81c-4.15,2.06-9,3.09-14.54,3.09H19.74v21.59H0z M19.74,36.79h6.96
		c3.46,0,6.17-0.91,8.13-2.72c1.96-1.81,2.95-4.27,2.95-7.37c0-3.12-0.98-5.56-2.95-7.32c-1.97-1.75-4.68-2.63-8.13-2.63h-6.96
		V36.79z"/>
	<path d="M75.43,73.72H54.12L78.13,0.99h26.99l24.01,72.73h-21.31l-4.19-13.92H79.62L75.43,73.72z M84.09,45.03h15.06L91.9,21.02
		h-0.57L84.09,45.03z"/>
	<path d="M172.44,23.72c-0.19-2.37-1.07-4.21-2.65-5.54c-1.57-1.33-3.96-1.99-7.16-1.99c-3.05,0-5.28,0.52-6.68,1.56
		c-1.4,1.04-2.11,2.37-2.13,3.98c-0.09,1.73,0.66,3.14,2.25,4.23s4.11,2,7.55,2.73l5.97,1.28c8.03,1.73,13.81,4.49,17.36,8.29
		c3.55,3.8,5.34,8.47,5.36,14.01c-0.02,7.17-2.65,12.68-7.88,16.53c-5.23,3.85-12.45,5.77-21.66,5.77c-6.32,0-11.83-0.93-16.53-2.81
		c-4.7-1.87-8.35-4.75-10.94-8.65c-2.59-3.89-3.9-8.88-3.92-14.97h18.75c0.17,3.34,1.32,5.88,3.46,7.62
		c2.14,1.74,5.11,2.61,8.9,2.61c3.17,0,5.57-0.57,7.19-1.7c1.62-1.14,2.44-2.6,2.47-4.4c-0.02-1.66-0.84-3.04-2.45-4.14
		c-1.61-1.1-4.44-2.09-8.49-2.97l-7.24-1.56c-6.44-1.4-11.51-3.73-15.22-7.01c-3.71-3.28-5.55-7.76-5.52-13.44
		c-0.02-4.62,1.21-8.66,3.71-12.13c2.5-3.47,5.97-6.17,10.4-8.11C151.79,0.97,156.89,0,162.64,0c5.87,0,10.95,0.98,15.23,2.95
		c4.28,1.97,7.59,4.73,9.93,8.29c2.33,3.56,3.51,7.72,3.53,12.48H172.44z"/>
	<path d="M267.76,28.27h-20.03c-0.28-3.31-1.49-5.99-3.6-8.03c-2.12-2.04-5.08-3.05-8.9-3.05c-4.97,0-8.77,1.78-11.4,5.34
		s-3.94,8.5-3.94,14.83c0,6.68,1.33,11.71,4,15.09c2.66,3.39,6.4,5.08,11.2,5.08c3.62,0,6.51-0.91,8.67-2.72
		c2.15-1.81,3.48-4.27,3.98-7.37l20.03,0.14c-0.24,3.08-1.1,6.21-2.59,9.39c-1.49,3.18-3.6,6.12-6.34,8.81
		c-2.73,2.69-6.11,4.85-10.14,6.48c-4.02,1.63-8.7,2.45-14.03,2.45c-6.68,0-12.66-1.43-17.95-4.3c-5.29-2.86-9.47-7.08-12.54-12.64
		c-3.07-5.56-4.6-12.37-4.6-20.42c0-8.1,1.56-14.92,4.69-20.47c3.12-5.55,7.34-9.75,12.64-12.61C222.21,1.43,228.12,0,234.66,0
		c6.11,0,11.56,1.1,16.35,3.3c4.79,2.2,8.65,5.41,11.58,9.62C265.51,17.14,267.23,22.25,267.76,28.27z"/>
	<path d="M295.6,73.72h-21.31L298.3,0.99h26.99l24.01,72.73h-21.31l-4.19-13.92h-24.01L295.6,73.72z M304.26,45.03h15.06
		l-7.24-24.01h-0.57L304.26,45.03z"/>
	<path d="M356.25,73.72V0.99h19.74v56.82h29.4v15.91H356.25z"/>
	<path d="M413.35,73.72V0.99h52.42V16.9h-32.67v12.5h29.97v15.91h-29.97v12.5h32.53v15.91H413.35z"/>
</g>
</svg>
